<?xml version="1.0" encoding="utf-8"?>
<svg version="1.1" xmlns="http://www.w3.org/2000/svg" viewBox="0 0 434.93 135.86">
<style type="text/css">
	.st0{fill:#424242;}
	.st1{fill:#03569B;}
	.st2{fill:#39CEFD;}
	.st3{fill:url(#SVGID_1_);}
	.st4{opacity:0.3;fill:url(#SVGID_2_);}
	.st5{opacity:0.6;fill:url(#SVGID_3_);}
	.st6{opacity:0.6;fill:url(#SVGID_4_);}
</style>
	<g transform="translate(-129.5,-161)">
		<g>
			<g class="st0">
				<path d="M334.5,180.4H362c9.4,0,17.5,1.9,24.5,5.8c7,3.9,12.3,9.2,16.1,16.1c3.7,6.9,5.6,14.8,5.6,23.7s-1.9,16.8-5.6,23.7
					c-3.7,6.9-9.1,12.3-16.1,16.1c-7,3.9-15.1,5.8-24.5,5.8h-27.5V180.4z M362,261.4c10.8,0,19.4-3.1,25.7-9.3
					c6.3-6.2,9.5-14.9,9.5-26c0-11.1-3.2-19.8-9.5-26c-6.3-6.2-14.9-9.3-25.7-9.3h-16.8v70.7H362z"/>
				<path d="M424.9,271c-3.7-1.9-6.6-4.4-8.7-7.7c-2-3.3-3.1-7-3.1-11.2c0-6.9,2.6-12.3,7.8-16.1c5.2-3.9,11.7-5.8,19.6-5.8
					c3.9,0,7.5,0.4,10.9,1.3c3.4,0.9,5.9,1.8,7.7,2.9v-4c0-4.8-1.7-8.7-5.1-11.7c-3.4-2.9-7.7-4.4-12.9-4.4c-3.7,0-7,0.8-10.1,2.4
					c-3.1,1.6-5.5,3.8-7.3,6.6l-8.2-6.1c2.6-3.9,6.1-7,10.5-9.2c4.5-2.2,9.4-3.3,14.9-3.3c8.8,0,15.8,2.3,20.9,7
					c5.1,4.6,7.6,10.9,7.6,18.9v41.2h-10.3v-9.3h-0.5c-1.9,3.1-4.7,5.8-8.4,8c-3.7,2.2-8,3.3-12.6,3.3
					C432.9,273.8,428.6,272.9,424.9,271z M448.9,261.4c3.1-1.9,5.7-4.4,7.5-7.5c1.9-3.1,2.8-6.6,2.8-10.3c-2-1.4-4.5-2.5-7.5-3.3
					c-3-0.8-6.1-1.3-9.4-1.3c-6,0-10.4,1.2-13.5,3.7c-3,2.5-4.5,5.7-4.5,9.6c0,3.6,1.4,6.5,4.1,8.7c2.7,2.2,6.2,3.3,10.3,3.3
					C442.3,264.2,445.7,263.3,448.9,261.4z"/>
				<path d="M481,207.7h10.3v10.3h0.5c1.5-3.8,4.1-6.8,7.8-8.9c3.7-2.1,7.7-3.2,12-3.2c1.9,0,3.4,0.1,4.7,0.4v11.1
					c-1.4-0.3-3.4-0.5-5.9-0.5c-5.5,0-10,1.8-13.5,5.5c-3.4,3.7-5.2,8.4-5.2,14.3v36.1H481V207.7z M548.3,272.5
					c-2.3-0.9-4.1-2-5.7-3.5c-1.7-1.6-3-3.5-3.8-5.7c-0.9-2.2-1.3-4.8-1.3-7.9v-38.8h-11.4v-9.8h11.4v-18.4h10.8v18.4h15.8v9.8
					h-15.8v36.2c0,3.7,0.7,6.3,2,8.1c1.6,1.9,4,2.9,7,2.9c2.5,0,4.8-0.7,7.1-2.2v10.6c-1.3,0.6-2.6,1-3.9,1.3c-1.3,0.3-3,0.4-5,0.4
					C553,273.8,550.5,273.4,548.3,272.5z"/>
			</g>
			<g>
				<g>
					<path class="st1" d="M160.2,272l-26.8-27.3c-4-4.1-5-10.3-2.6-15.5l21.5-45.6l88.4,88.4H160.2z"/>
					<path class="st2" d="M265.4,215.1L213,164.7c-4.1-4-10.3-5-15.4-2.5l-45.2,21.5l88.4,88.4l24.7,0V215.1z"/>
				</g>
				<linearGradient id="SVGID_1_" gradientUnits="userSpaceOnUse" x1="161.7318" y1="273.7376" x2="203.4417" y2="233.4588">
					<stop  offset="0.5094" style="stop-color:#39CEFD;stop-opacity:0.9"/>
					<stop  offset="1" style="stop-color:#39CEFD"/>
				</linearGradient>
				<path class="st3" d="M152.3,183.6v73c0,4.7,1.9,9.3,5.2,12.7l26.6,27.4h56.6V272L152.3,183.6z"/>
				<path class="st1" d="M225.2,183.7l-72.9,0l88.4,88.4v0h24.7v-56.9l-27.6-26.4C234.4,185.5,229.9,183.7,225.2,183.7z"/>
				<linearGradient id="SVGID_2_" gradientUnits="userSpaceOnUse" x1="244.337" y1="193.5426" x2="201.6639" y2="234.7515">
					<stop  offset="0" style="stop-color:#FFFFFF"/>
					<stop  offset="0.2162" style="stop-color:#FCFDFE"/>
					<stop  offset="0.3518" style="stop-color:#F4F6F9"/>
					<stop  offset="0.4652" style="stop-color:#E5EBF1"/>
					<stop  offset="0.5664" style="stop-color:#D0DCE6"/>
					<stop  offset="0.6595" style="stop-color:#B6C7D7"/>
					<stop  offset="0.7466" style="stop-color:#95AEC5"/>
					<stop  offset="0.8292" style="stop-color:#6D90B0"/>
					<stop  offset="0.9081" style="stop-color:#406E98"/>
					<stop  offset="0.9814" style="stop-color:#0E487D"/>
					<stop  offset="1" style="stop-color:#003D75"/>
				</linearGradient>
				<path class="st4" d="M225.1,183.6h-72.8l88.4,88.4v0h24.7v-56.6L238.3,189C234.8,185.5,230.1,183.6,225.1,183.6z"/>
				<g>
					<linearGradient id="SVGID_3_" gradientUnits="userSpaceOnUse" x1="152.3006" y1="183.6345" x2="152.3007" y2="183.6345">
						<stop  offset="0.4588" style="stop-color:#FFFFFF"/>
						<stop  offset="0.5549" style="stop-color:#FCFDFE"/>
						<stop  offset="0.6151" style="stop-color:#F4F6F9"/>
						<stop  offset="0.6656" style="stop-color:#E5EBF1"/>
						<stop  offset="0.7105" style="stop-color:#D0DCE6"/>
						<stop  offset="0.7519" style="stop-color:#B6C7D7"/>
						<stop  offset="0.7906" style="stop-color:#95AEC5"/>
						<stop  offset="0.8273" style="stop-color:#6D90B0"/>
						<stop  offset="0.8624" style="stop-color:#406E98"/>
						<stop  offset="0.895" style="stop-color:#0E487D"/>
						<stop  offset="0.9032" style="stop-color:#003D75"/>
					</linearGradient>
					<polygon class="st5" points="152.3,183.6 152.3,183.6 152.3,183.6 					"/>
					<linearGradient id="SVGID_4_" gradientUnits="userSpaceOnUse" x1="134.9033" y1="251.5711" x2="174.4568" y2="200.945">
						<stop  offset="0.4588" style="stop-color:#FFFFFF"/>
						<stop  offset="0.5549" style="stop-color:#FCFDFE"/>
						<stop  offset="0.6151" style="stop-color:#F4F6F9"/>
						<stop  offset="0.6656" style="stop-color:#E5EBF1"/>
						<stop  offset="0.7105" style="stop-color:#D0DCE6"/>
						<stop  offset="0.7519" style="stop-color:#B6C7D7"/>
						<stop  offset="0.7906" style="stop-color:#95AEC5"/>
						<stop  offset="0.8273" style="stop-color:#6D90B0"/>
						<stop  offset="0.8624" style="stop-color:#406E98"/>
						<stop  offset="0.895" style="stop-color:#0E487D"/>
						<stop  offset="0.9032" style="stop-color:#003D75"/>
					</linearGradient>
					<path class="st6" d="M152.3,256.6v-73l-21.5,45.6c-2.5,5.3-1.4,11.7,2.7,15.9l23.5,23.8C154,265.5,152.3,261.2,152.3,256.6z"/>
				</g>
			</g>
		</g>
	</g>
</svg>
