<?xml version="1.0" encoding="utf-8"?>
<!-- Generator: Adobe Illustrator 22.0.1, SVG Export Plug-In . SVG Version: 6.00 Build 0)  -->
<svg version="1.1" id="content" xmlns="http://www.w3.org/2000/svg" xmlns:xlink="http://www.w3.org/1999/xlink" x="0px" y="0px"
	 width="411px" height="663.85px" viewBox="0 0 411 663.85" enable-background="new 0 0 411 663.85" xml:space="preserve">
<g>
	<g>
		<path fill="#FFFFFF" d="M92.03,567.68h27.64c9.38,0,17.57,1.94,24.57,5.82c6.99,3.88,12.37,9.28,16.12,16.19s5.63,14.84,5.63,23.8
			s-1.88,16.89-5.63,23.8s-9.13,12.3-16.12,16.18c-7,3.88-15.18,5.82-24.57,5.82H92.02L92.03,567.68L92.03,567.68z M119.67,648.93
			c10.83,0,19.43-3.11,25.78-9.34c6.35-6.23,9.53-14.93,9.53-26.1s-3.18-19.87-9.53-26.1c-6.36-6.23-14.95-9.34-25.78-9.34h-16.89
			v70.88H119.67z"/>
		<path fill="#FFFFFF" d="M182.74,658.52c-3.75-1.88-6.65-4.46-8.7-7.74c-2.05-3.28-3.07-7.02-3.07-11.2c0-6.91,2.6-12.3,7.8-16.18
			s11.77-5.82,19.7-5.82c3.92,0,7.57,0.43,10.94,1.28c3.37,0.85,5.95,1.84,7.74,2.94v-3.97c0-4.86-1.71-8.76-5.12-11.71
			c-3.41-2.94-7.72-4.41-12.92-4.41c-3.67,0-7.04,0.79-10.11,2.37s-5.5,3.77-7.29,6.59l-8.19-6.14c2.56-3.92,6.08-6.99,10.56-9.21
			c4.48-2.22,9.45-3.33,14.91-3.33c8.87,0,15.84,2.32,20.92,6.97c5.07,4.65,7.61,10.98,7.61,19v41.33h-10.36v-9.34h-0.51
			c-1.88,3.16-4.69,5.84-8.44,8.06s-7.98,3.33-12.67,3.33C190.76,661.34,186.49,660.4,182.74,658.52z M206.79,648.93
			c3.15-1.88,5.67-4.39,7.55-7.55c1.88-3.15,2.81-6.61,2.81-10.36c-2.05-1.36-4.56-2.47-7.55-3.33c-2.99-0.85-6.14-1.28-9.47-1.28
			c-5.97,0-10.47,1.24-13.5,3.71c-3.03,2.47-4.54,5.67-4.54,9.6c0,3.58,1.36,6.48,4.09,8.7c2.73,2.22,6.18,3.33,10.36,3.33
			C200.22,651.74,203.64,650.8,206.79,648.93z"/>
		<path fill="#FFFFFF" d="M239,595.06h10.36v10.36h0.51c1.54-3.84,4.14-6.82,7.8-8.96c3.67-2.13,7.68-3.2,12.03-3.2
			c1.88,0,3.45,0.13,4.73,0.38v11.13c-1.45-0.34-3.41-0.51-5.89-0.51c-5.55,0-10.04,1.84-13.5,5.5c-3.45,3.67-5.18,8.44-5.18,14.33
			v36.21h-10.88v-65.24H239z M306.53,660.03c-2.26-0.87-4.16-2.04-5.69-3.52c-1.71-1.65-2.99-3.56-3.84-5.73
			c-0.85-2.17-1.28-4.82-1.28-7.95v-38.95h-11.39v-9.85h11.39v-18.42h10.88v18.42h15.87v9.85h-15.87v36.35
			c0,3.66,0.68,6.37,2.05,8.11c1.62,1.92,3.97,2.88,7.04,2.88c2.47,0,4.86-0.72,7.16-2.17v10.62c-1.28,0.6-2.58,1.02-3.9,1.28
			s-3.01,0.38-5.05,0.38C311.24,661.34,308.79,660.9,306.53,660.03z"/>
	</g>
	<g>
		<path fill="#01579B" d="M84.75,327.22l-69.77-69.77c-8.27-8.5-13.42-20.49-13.42-32.2c0-5.42,3.07-13.9,5.37-18.78L71.32,72.3
			L84.75,327.22z"/>
		<path fill="#40C4FF" d="M323.58,85.71l-69.77-69.77c-6.1-6.12-18.78-13.42-29.52-13.42c-9.22,0-18.28,1.84-24.15,5.37L71.32,72.29
			L323.58,85.71z"/>
		<polygon fill="#40C4FF" points="167.94,410.4 336.99,410.4 336.99,337.95 210.88,297.7 95.49,337.95 		"/>
		<path fill="#29B6F6" d="M71.34,289.65c0,21.52,2.7,26.81,13.42,37.57l10.73,10.73h241.51L218.93,203.78L71.34,72.29V289.65z"/>
		<path fill="#01579B" d="M286.01,72.29H71.34l265.66,265.66h72.45V171.58l-85.87-85.87C311.52,73.6,300.8,72.29,286.01,72.29z"/>
		<path opacity="0.2" fill="#FFFFFF" enable-background="new    " d="M87.44,329.9c-10.73-10.78-13.42-21.39-13.42-40.25V74.97
			l-2.68-2.68v217.36C71.34,308.51,71.34,313.74,87.44,329.9l8.05,8.05l0,0L87.44,329.9z"/>
		<polygon opacity="0.2" fill="#263238" enable-background="new    " points="406.77,168.89 406.77,335.27 334.3,335.27 
			336.99,337.95 409.45,337.95 409.45,171.58 		"/>
		<path opacity="0.2" fill="#FFFFFF" enable-background="new    " d="M323.58,85.71c-13.3-13.3-24.21-13.42-40.25-13.42H71.34
			l2.68,2.68h209.31C291.34,74.97,311.54,73.63,323.58,85.71L323.58,85.71z"/>
		
			<radialGradient id="SVGID_1_" cx="205.49" cy="459.2966" r="203.935" gradientTransform="matrix(1 0 0 -1 0 665.7432)" gradientUnits="userSpaceOnUse">
			<stop  offset="0" style="stop-color:#FFFFFF;stop-opacity:0.1"/>
			<stop  offset="1" style="stop-color:#FFFFFF;stop-opacity:0"/>
		</radialGradient>
		<path opacity="0.2" fill="url(#SVGID_1_)" enable-background="new    " d="M406.77,168.89L323.58,85.7l-69.77-69.77
			c-6.1-6.12-18.78-13.42-29.52-13.42c-9.22,0-18.28,1.84-24.15,5.37L71.32,72.28L6.92,206.45c-2.3,4.88-5.37,13.36-5.37,18.78
			c0,11.72,5.15,23.7,13.42,32.2l64.3,63.83c1.54,1.88,3.34,3.8,5.47,5.94l2.68,2.68l8.05,8.05l69.77,69.77l2.68,2.68h166.37h2.68
			v-72.45h72.45v-0.19V171.58L406.77,168.89z"/>
	</g>
</g>
</svg>
